<?xml version="1.0" encoding="us-ascii" standalone="no"?><svg xmlns="http://www.w3.org/2000/svg" xmlns:xlink="http://www.w3.org/1999/xlink" contentStyleType="text/css" height="401px" preserveAspectRatio="none" style="width:961px;height:401px;background:#FFFFFF;" version="1.1" viewBox="0 0 961 401" width="961px" zoomAndPan="magnify"><defs/><g><!--cluster ?????--><g id="cluster_&#25968;&#25454;&#33719;&#21462;&#23618;"><path d="M8.5,6 L79.5,6 A3.75,3.75 0 0 1 82,8.5 L89,28.2969 L386.5,28.2969 A2.5,2.5 0 0 1 389,30.7969 L389,181.5 A2.5,2.5 0 0 1 386.5,184 L8.5,184 A2.5,2.5 0 0 1 6,181.5 L6,8.5 A2.5,2.5 0 0 1 8.5,6 " fill="none" style="stroke:#000000;stroke-width:1.5;"/><line style="stroke:#000000;stroke-width:1.5;" x1="6" x2="89" y1="28.2969" y2="28.2969"/><text fill="#000000" font-family="sans-serif" font-size="14" font-weight="bold" lengthAdjust="spacing" textLength="70" x="10" y="20.9951">&#25968;&#25454;&#33719;&#21462;&#23618;</text></g><!--cluster ?????--><g id="cluster_&#25968;&#25454;&#22788;&#29702;&#23618;"><path d="M264.5,208 L335.5,208 A3.75,3.75 0 0 1 338,210.5 L345,230.2969 L745.5,230.2969 A2.5,2.5 0 0 1 748,232.7969 L748,302.5 A2.5,2.5 0 0 1 745.5,305 L264.5,305 A2.5,2.5 0 0 1 262,302.5 L262,210.5 A2.5,2.5 0 0 1 264.5,208 " fill="none" style="stroke:#000000;stroke-width:1.5;"/><line style="stroke:#000000;stroke-width:1.5;" x1="262" x2="345" y1="230.2969" y2="230.2969"/><text fill="#000000" font-family="sans-serif" font-size="14" font-weight="bold" lengthAdjust="spacing" textLength="70" x="266" y="222.9951">&#25968;&#25454;&#22788;&#29702;&#23618;</text></g><!--cluster ?????--><g id="cluster_&#25968;&#25454;&#36755;&#20986;&#23618;"><path d="M783.5,173 L854.5,173 A3.75,3.75 0 0 1 857,175.5 L864,195.2969 L951.5,195.2969 A2.5,2.5 0 0 1 954,197.7969 L954,348.5 A2.5,2.5 0 0 1 951.5,351 L783.5,351 A2.5,2.5 0 0 1 781,348.5 L781,175.5 A2.5,2.5 0 0 1 783.5,173 " fill="none" style="stroke:#000000;stroke-width:1.5;"/><line style="stroke:#000000;stroke-width:1.5;" x1="781" x2="864" y1="195.2969" y2="195.2969"/><text fill="#000000" font-family="sans-serif" font-size="14" font-weight="bold" lengthAdjust="spacing" textLength="70" x="785" y="187.9951">&#25968;&#25454;&#36755;&#20986;&#23618;</text></g><!--entity api--><g id="elem_api"><rect fill="#F1F1F1" height="46.2969" rx="2.5" ry="2.5" style="stroke:#181818;stroke-width:0.5;" width="140" x="22" y="121.86"/><rect fill="#F1F1F1" height="10" style="stroke:#181818;stroke-width:0.5;" width="15" x="142" y="126.86"/><rect fill="#F1F1F1" height="2" style="stroke:#181818;stroke-width:0.5;" width="4" x="140" y="128.86"/><rect fill="#F1F1F1" height="2" style="stroke:#181818;stroke-width:0.5;" width="4" x="140" y="132.86"/><text fill="#000000" font-family="sans-serif" font-size="14" lengthAdjust="spacing" textLength="100" x="37" y="154.8551">A&#24179;&#21488;API&#23458;&#25143;&#31471;</text></g><!--entity crawler--><g id="elem_crawler"><rect fill="#F1F1F1" height="46.2969" rx="2.5" ry="2.5" style="stroke:#181818;stroke-width:0.5;" width="96" x="44" y="40.86"/><rect fill="#F1F1F1" height="10" style="stroke:#181818;stroke-width:0.5;" width="15" x="120" y="45.86"/><rect fill="#F1F1F1" height="2" style="stroke:#181818;stroke-width:0.5;" width="4" x="118" y="47.86"/><rect fill="#F1F1F1" height="2" style="stroke:#181818;stroke-width:0.5;" width="4" x="118" y="51.86"/><text fill="#000000" font-family="sans-serif" font-size="14" lengthAdjust="spacing" textLength="56" x="59" y="73.8551">&#29228;&#34411;&#24341;&#25806;</text></g><!--entity proxy--><g id="elem_proxy"><rect fill="#F1F1F1" height="46.2969" rx="2.5" ry="2.5" style="stroke:#181818;stroke-width:0.5;" width="94" x="279" y="40.86"/><rect fill="#F1F1F1" height="10" style="stroke:#181818;stroke-width:0.5;" width="15" x="353" y="45.86"/><rect fill="#F1F1F1" height="2" style="stroke:#181818;stroke-width:0.5;" width="4" x="351" y="47.86"/><rect fill="#F1F1F1" height="2" style="stroke:#181818;stroke-width:0.5;" width="4" x="351" y="51.86"/><text fill="#000000" font-family="sans-serif" font-size="14" lengthAdjust="spacing" textLength="54" x="294" y="73.8551">&#20195;&#29702;IP&#27744;</text></g><!--entity rule--><g id="elem_rule"><rect fill="#F1F1F1" height="46.2969" rx="2.5" ry="2.5" style="stroke:#181818;stroke-width:0.5;" width="96" x="278" y="242.86"/><rect fill="#F1F1F1" height="10" style="stroke:#181818;stroke-width:0.5;" width="15" x="354" y="247.86"/><rect fill="#F1F1F1" height="2" style="stroke:#181818;stroke-width:0.5;" width="4" x="352" y="249.86"/><rect fill="#F1F1F1" height="2" style="stroke:#181818;stroke-width:0.5;" width="4" x="352" y="253.86"/><text fill="#000000" font-family="sans-serif" font-size="14" lengthAdjust="spacing" textLength="56" x="293" y="275.8551">&#35268;&#21017;&#24341;&#25806;</text></g><!--entity cleaner--><g id="elem_cleaner"><rect fill="#F1F1F1" height="46.2969" rx="2.5" ry="2.5" style="stroke:#181818;stroke-width:0.5;" width="110" x="443.5" y="242.86"/><rect fill="#F1F1F1" height="10" style="stroke:#181818;stroke-width:0.5;" width="15" x="533.5" y="247.86"/><rect fill="#F1F1F1" height="2" style="stroke:#181818;stroke-width:0.5;" width="4" x="531.5" y="249.86"/><rect fill="#F1F1F1" height="2" style="stroke:#181818;stroke-width:0.5;" width="4" x="531.5" y="253.86"/><text fill="#000000" font-family="sans-serif" font-size="14" lengthAdjust="spacing" textLength="70" x="458.5" y="275.8551">&#25968;&#25454;&#28165;&#27927;&#22120;</text></g><!--entity converter--><g id="elem_converter"><rect fill="#F1F1F1" height="46.2969" rx="2.5" ry="2.5" style="stroke:#181818;stroke-width:0.5;" width="110" x="622" y="242.86"/><rect fill="#F1F1F1" height="10" style="stroke:#181818;stroke-width:0.5;" width="15" x="712" y="247.86"/><rect fill="#F1F1F1" height="2" style="stroke:#181818;stroke-width:0.5;" width="4" x="710" y="249.86"/><rect fill="#F1F1F1" height="2" style="stroke:#181818;stroke-width:0.5;" width="4" x="710" y="253.86"/><text fill="#000000" font-family="sans-serif" font-size="14" lengthAdjust="spacing" textLength="70" x="637" y="275.8551">&#26684;&#24335;&#36716;&#25442;&#22120;</text></g><!--entity bapi--><g id="elem_bapi"><rect fill="#F1F1F1" height="46.2969" rx="2.5" ry="2.5" style="stroke:#181818;stroke-width:0.5;" width="141" x="797" y="207.86"/><rect fill="#F1F1F1" height="10" style="stroke:#181818;stroke-width:0.5;" width="15" x="918" y="212.86"/><rect fill="#F1F1F1" height="2" style="stroke:#181818;stroke-width:0.5;" width="4" x="916" y="214.86"/><rect fill="#F1F1F1" height="2" style="stroke:#181818;stroke-width:0.5;" width="4" x="916" y="218.86"/><text fill="#000000" font-family="sans-serif" font-size="14" lengthAdjust="spacing" textLength="101" x="812" y="240.8551">B&#24179;&#21488;API&#36866;&#37197;&#22120;</text></g><!--entity rpa--><g id="elem_rpa"><rect fill="#F1F1F1" height="46.2969" rx="2.5" ry="2.5" style="stroke:#181818;stroke-width:0.5;" width="110" x="812.5" y="288.86"/><rect fill="#F1F1F1" height="10" style="stroke:#181818;stroke-width:0.5;" width="15" x="902.5" y="293.86"/><rect fill="#F1F1F1" height="2" style="stroke:#181818;stroke-width:0.5;" width="4" x="900.5" y="295.86"/><rect fill="#F1F1F1" height="2" style="stroke:#181818;stroke-width:0.5;" width="4" x="900.5" y="299.86"/><text fill="#000000" font-family="sans-serif" font-size="14" lengthAdjust="spacing" textLength="70" x="827.5" y="321.8551">RPA&#26426;&#22120;&#20154;</text></g><g id="elem_GMN21"><path d="M436,323.74 L436,323.74 L370.02,289.47 L436,331.74 L436,394.2713 A0,0 0 0 0 436,394.2713 L561,394.2713 A0,0 0 0 0 561,394.2713 L561,333.74 L551,323.74 L436,323.74 A0,0 0 0 0 436,323.74 " fill="#FEFFDD" style="stroke:#181818;stroke-width:0.5;"/><path d="M551,323.74 L551,333.74 L561,333.74 L551,323.74 " fill="#FEFFDD" style="stroke:#181818;stroke-width:0.5;"/><text fill="#000000" font-family="sans-serif" font-size="13" lengthAdjust="spacing" textLength="104" x="442" y="340.8069">&#26144;&#23556;&#35268;&#21017;&#24211;&#21253;&#21547;&#65306;</text><text fill="#000000" font-family="sans-serif" font-size="13" lengthAdjust="spacing" textLength="74" x="442" y="355.9397">- &#31867;&#30446;&#23545;&#24212;&#34920;</text><text fill="#000000" font-family="sans-serif" font-size="13" lengthAdjust="spacing" textLength="87" x="442" y="371.0725">- &#21333;&#20301;&#36716;&#25442;&#20844;&#24335;</text><text fill="#000000" font-family="sans-serif" font-size="13" lengthAdjust="spacing" textLength="74" x="442" y="386.2053">- &#25935;&#24863;&#35789;&#21015;&#34920;</text></g><!--link api to rule--><g id="link_api_rule"><path d="M138.28,168.62 C179.16,189.94 233.6706,218.3644 274.5106,239.6744 " fill="none" id="api-to-rule" style="stroke:#181818;stroke-width:1.0;"/><polygon fill="#181818" points="279.83,242.45,273.7013,234.7403,275.3972,240.137,270.0005,241.8328,279.83,242.45" style="stroke:#181818;stroke-width:1.0;"/><text fill="#000000" font-family="sans-serif" font-size="13" lengthAdjust="spacing" textLength="52" x="193" y="195.0669">&#21407;&#22987;&#25968;&#25454;</text></g><!--link crawler to proxy--><g id="link_crawler_proxy"><path d="M140.23,74.51 C180.64,77.53 232.4873,77.9558 272.6473,74.8958 " fill="none" id="crawler-to-proxy" style="stroke:#181818;stroke-width:1.0;"/><polygon fill="#181818" points="278.63,74.44,269.3521,71.1353,273.6445,74.8199,269.9599,79.1122,278.63,74.44" style="stroke:#181818;stroke-width:1.0;"/></g><!--link proxy to crawler--><g id="link_proxy_crawler"><path d="M278.63,52.95 C238.47,49.71 186.6214,49.2178 146.2114,52.4078 " fill="none" id="proxy-to-crawler" style="stroke:#181818;stroke-width:1.0;"/><polygon fill="#181818" points="140.23,52.88,149.5169,56.1593,145.2145,52.4865,148.8873,48.1841,140.23,52.88" style="stroke:#181818;stroke-width:1.0;"/></g><!--link crawler to rule--><g id="link_crawler_rule"><path d="M136.03,87.44 C144.8,92.63 153.83,98.29 162,104 C201.83,131.85 211.98,139.3 246,174 C249.98,178.07 250.36,179.63 254,184 C270.63,203.98 286.0019,221.7407 300.2919,238.0207 " fill="none" id="crawler-to-rule" style="stroke:#181818;stroke-width:1.0;"/><polygon fill="#181818" points="304.25,242.53,301.3191,233.1274,300.9516,238.7723,295.3067,238.4048,304.25,242.53" style="stroke:#181818;stroke-width:1.0;"/></g><!--link rule to cleaner--><g id="link_rule_cleaner"><path d="M374.49,266 C395.78,266 415,266 437.04,266 " fill="none" id="rule-to-cleaner" style="stroke:#181818;stroke-width:1.0;"/><polygon fill="#181818" points="443.04,266,434.04,262,438.04,266,434.04,270,443.04,266" style="stroke:#181818;stroke-width:1.0;"/></g><!--link cleaner to converter--><g id="link_cleaner_converter"><path d="M553.9,266 C575.47,266 594.23,266 615.78,266 " fill="none" id="cleaner-to-converter" style="stroke:#181818;stroke-width:1.0;"/><polygon fill="#181818" points="621.78,266,612.78,262,616.78,266,612.78,270,621.78,266" style="stroke:#181818;stroke-width:1.0;"/></g><!--link converter to bapi--><g id="link_converter_bapi"><path d="M732.27,255.93 C752.39,252.19 769.6006,248.994 790.9006,245.044 " fill="none" id="converter-to-bapi" style="stroke:#181818;stroke-width:1.0;"/><polygon fill="#181818" points="796.8,243.95,787.2215,241.6581,791.8838,244.8617,788.6802,249.524,796.8,243.95" style="stroke:#181818;stroke-width:1.0;"/></g><!--link converter to rpa--><g id="link_converter_rpa"><path d="M732.27,279.25 C757.39,285.38 781.3405,291.2298 806.4605,297.3498 " fill="none" id="converter-to-rpa" style="stroke:#181818;stroke-width:1.0;"/><polygon fill="#181818" points="812.29,298.77,804.4926,292.7533,807.4321,297.5865,802.5989,300.526,812.29,298.77" style="stroke:#181818;stroke-width:1.0;"/></g><!--SRC=[PLBBJi905DttAoRi-G4N9hXZHzmQ5nK6R6pQfjPNZ8aXL4cqb0GheYOWca02uH5Da5By6kwqhFm5svcsgQ6BFiuvSyyz9nLnKKEQZ5IXTAYXWg3Yl2R84iSfVFw8Bs6K8jQ462ElDWFp4QRb5Bhaa7_jPM3-2UOaayl2g4kgCtSmtaVyCU8LWGdSwj1h3S2nIAD6cRpAdubOPUngyUxMRx8vCkrGKb7bymlkQiCOFYg-BcdizIfGRINcgYSYPXGxGhvryjM4Lf-vYfYN8bVISS0nlUMG6DrO84kdMDLyoQQxzzE0MplflXF7Nb-NrxeHJJc8S-_cCkJLzl6LRRFz53uOxGjGEhrDrqLR26fjwDqn6owiXlAi2Ngdtr5jIGsDJ0THHHWnV38iJXM_KPpk-HyAzkCaMSFXNo0Neqh9KmScbR1mkm7tEjG7lywpJwMHErsuBoCOpy5-yDxw50F3MYsDi5zzw7TDOMAPfDBsnWPKcu4KImKK6Fu1]--></g></svg>