<?xml version="1.0" encoding="us-ascii" standalone="no"?><svg xmlns="http://www.w3.org/2000/svg" xmlns:xlink="http://www.w3.org/1999/xlink" contentStyleType="text/css" height="271px" preserveAspectRatio="none" style="width:159px;height:271px;background:#FFFFFF;" version="1.1" viewBox="0 0 159 271" width="159px" zoomAndPan="magnify"><defs/><g><!--entity clean--><g id="elem_clean"><rect fill="#F1F1F1" height="46.2969" rx="2.5" ry="2.5" style="stroke:#181818;stroke-width:0.5;" width="96" x="57" y="7"/><rect fill="#F1F1F1" height="10" style="stroke:#181818;stroke-width:0.5;" width="15" x="133" y="12"/><rect fill="#F1F1F1" height="2" style="stroke:#181818;stroke-width:0.5;" width="4" x="131" y="14"/><rect fill="#F1F1F1" height="2" style="stroke:#181818;stroke-width:0.5;" width="4" x="131" y="18"/><text fill="#000000" font-family="sans-serif" font-size="14" lengthAdjust="spacing" textLength="56" x="72" y="39.9951">&#25968;&#25454;&#28165;&#27927;</text></g><!--entity transform--><g id="elem_transform"><rect fill="#F1F1F1" height="46.2969" rx="2.5" ry="2.5" style="stroke:#181818;stroke-width:0.5;" width="96" x="7" y="113.3"/><rect fill="#F1F1F1" height="10" style="stroke:#181818;stroke-width:0.5;" width="15" x="83" y="118.3"/><rect fill="#F1F1F1" height="2" style="stroke:#181818;stroke-width:0.5;" width="4" x="81" y="120.3"/><rect fill="#F1F1F1" height="2" style="stroke:#181818;stroke-width:0.5;" width="4" x="81" y="124.3"/><text fill="#000000" font-family="sans-serif" font-size="14" lengthAdjust="spacing" textLength="56" x="22" y="146.2951">&#25968;&#25454;&#36716;&#25442;</text></g><!--entity media--><g id="elem_media"><rect fill="#F1F1F1" height="46.2969" rx="2.5" ry="2.5" style="stroke:#181818;stroke-width:0.5;" width="96" x="57" y="219.59"/><rect fill="#F1F1F1" height="10" style="stroke:#181818;stroke-width:0.5;" width="15" x="133" y="224.59"/><rect fill="#F1F1F1" height="2" style="stroke:#181818;stroke-width:0.5;" width="4" x="131" y="226.59"/><rect fill="#F1F1F1" height="2" style="stroke:#181818;stroke-width:0.5;" width="4" x="131" y="230.59"/><text fill="#000000" font-family="sans-serif" font-size="14" lengthAdjust="spacing" textLength="56" x="72" y="252.5851">&#23186;&#20307;&#22788;&#29702;</text></g><!--link clean to transform--><g id="link_clean_transform"><path d="M94.15,53.78 C85.76,71.27 76.8038,89.9696 68.4238,107.4496 " fill="none" id="clean-to-transform" style="stroke:#181818;stroke-width:1.0;"/><polygon fill="#181818" points="65.83,112.86,73.3276,106.4736,67.9915,108.3513,66.1137,103.0152,65.83,112.86" style="stroke:#181818;stroke-width:1.0;"/></g><!--link clean to media--><g id="link_clean_media"><path d="M110.25,53.66 C113.79,70.08 118.16,92.94 120,113.3 C121.86,133.79 121.86,139.1 120,159.59 C118.16,179.95 115.0538,196.9346 111.5138,213.3646 " fill="none" id="clean-to-media" style="stroke:#181818;stroke-width:1.0;"/><polygon fill="#181818" points="110.25,219.23,116.0559,211.2744,111.3031,214.3422,108.2354,209.5894,110.25,219.23" style="stroke:#181818;stroke-width:1.0;"/></g><!--link transform to media--><g id="link_transform_media"><path d="M65.85,160.08 C74.24,177.57 83.1962,196.2596 91.5762,213.7396 " fill="none" id="transform-to-media" style="stroke:#181818;stroke-width:1.0;"/><polygon fill="#181818" points="94.17,219.15,93.8863,209.3052,92.0085,214.6413,86.6724,212.7636,94.17,219.15" style="stroke:#181818;stroke-width:1.0;"/></g><!--SRC=[IyxFBSZFIyqhKL1wDdN3izvrptQqFjioNKaXiLWXEISrCOyh6Lt5YxrhdlKk0gieAKhCAqxBByf5LlLqrQGdUoS_NTBoV48RM5LkQafc8XVOD0LTNJjaNN0nY1gu348C0000]--></g></svg>