<?xml version="1.0" encoding="us-ascii" standalone="no"?><svg xmlns="http://www.w3.org/2000/svg" xmlns:xlink="http://www.w3.org/1999/xlink" contentStyleType="text/css" height="1611px" preserveAspectRatio="none" style="width:625px;height:1611px;background:#FFFFFF;" version="1.1" viewBox="0 0 625 1611" width="625px" zoomAndPan="magnify"><defs/><g><text fill="#000000" font-family="sans-serif" font-size="14" font-weight="bold" lengthAdjust="spacing" textLength="154" x="234.125" y="32.9951">&#36328;&#24179;&#21488;&#25968;&#25454;&#36801;&#31227;&#20248;&#21270;&#27969;&#31243;</text><ellipse cx="339.25" cy="57.2969" fill="#222222" rx="10" ry="10" style="stroke:#222222;stroke-width:1.0;"/><rect fill="#F1F1F1" height="33.9688" rx="12.5" ry="12.5" style="stroke:#181818;stroke-width:0.5;" width="80" x="299.25" y="87.2969"/><text fill="#000000" font-family="sans-serif" font-size="12" lengthAdjust="spacing" textLength="60" x="309.25" y="108.4355">&#21021;&#22987;&#21270;&#31995;&#32479;</text><rect fill="#F1F1F1" height="33.9688" rx="12.5" ry="12.5" style="stroke:#181818;stroke-width:0.5;" width="239" x="219.75" y="141.2656"/><text fill="#000000" font-family="sans-serif" font-size="12" lengthAdjust="spacing" textLength="219" x="229.75" y="162.4043">&#21152;&#36733;&#37197;&#32622;&#65288;API&#23494;&#38053;/&#20195;&#29702;&#35774;&#32622;/&#35268;&#21017;&#26144;&#23556;&#65289;</text><rect fill="#555555" height="6" rx="2.5" ry="2.5" style="stroke:#555555;stroke-width:1.0;" width="471" x="103.75" y="195.2344"/><rect fill="#F1F1F1" height="33.9688" rx="12.5" ry="12.5" style="stroke:#181818;stroke-width:0.5;" width="76" x="224" y="221.2344"/><text fill="#000000" font-family="sans-serif" font-size="12" lengthAdjust="spacing" textLength="56" x="234" y="242.373">A&#24179;&#21488;&#35748;&#35777;</text><polygon fill="#F1F1F1" points="226,277.6875,298,277.6875,310,289.6875,298,301.6875,226,301.6875,214,289.6875,226,277.6875" style="stroke:#181818;stroke-width:0.5;"/><text fill="#000000" font-family="sans-serif" font-size="11" lengthAdjust="spacing" textLength="72" x="226" y="293.4956">&#25968;&#25454;&#26469;&#28304;&#26041;&#24335;?</text><text fill="#000000" font-family="sans-serif" font-size="11" lengthAdjust="spacing" textLength="17" x="197" y="287.0933">API</text><text fill="#000000" font-family="sans-serif" font-size="11" lengthAdjust="spacing" textLength="22" x="310" y="287.0933">&#29228;&#34411;</text><rect fill="#F1F1F1" height="33.9688" rx="12.5" ry="12.5" style="stroke:#181818;stroke-width:0.5;" width="119" x="127.75" y="311.6875"/><text fill="#000000" font-family="sans-serif" font-size="12" lengthAdjust="spacing" textLength="99" x="137.75" y="332.8262">&#35843;&#29992;A&#24179;&#21488;&#24320;&#25918;API</text><rect fill="#F1F1F1" height="33.9688" rx="12.5" ry="12.5" style="stroke:#181818;stroke-width:0.5;" width="104" x="135.25" y="380.6563"/><text fill="#000000" font-family="sans-serif" font-size="12" lengthAdjust="spacing" textLength="84" x="145.25" y="401.7949">&#33719;&#21462;&#32467;&#26500;&#21270;&#25968;&#25454;</text><rect fill="#F1F1F1" height="33.9688" rx="12.5" ry="12.5" style="stroke:#181818;stroke-width:0.5;" width="104" x="284.75" y="311.6875"/><text fill="#000000" font-family="sans-serif" font-size="12" lengthAdjust="spacing" textLength="84" x="294.75" y="332.8262">&#21551;&#21160;&#26080;&#22836;&#27983;&#35272;&#22120;</text><rect fill="#F1F1F1" height="33.9688" rx="12.5" ry="12.5" style="stroke:#181818;stroke-width:0.5;" width="140" x="266.75" y="380.6563"/><text fill="#000000" font-family="sans-serif" font-size="12" lengthAdjust="spacing" textLength="120" x="276.75" y="401.7949">&#27169;&#25311;&#29992;&#25143;&#25805;&#20316;&#25235;&#21462;&#25968;&#25454;</text><rect fill="#F1F1F1" height="33.9688" rx="12.5" ry="12.5" style="stroke:#181818;stroke-width:0.5;" width="79" x="297.25" y="449.625"/><text fill="#000000" font-family="sans-serif" font-size="12" lengthAdjust="spacing" textLength="59" x="307.25" y="470.7637">&#21160;&#24577;IP&#36718;&#25442;</text><polygon fill="#F1F1F1" points="262,489.5938,274,501.5938,262,513.5938,250,501.5938,262,489.5938" style="stroke:#181818;stroke-width:0.5;"/><rect fill="#F1F1F1" height="33.9688" rx="12.5" ry="12.5" style="stroke:#181818;stroke-width:0.5;" width="76" x="464.75" y="275.2031"/><text fill="#000000" font-family="sans-serif" font-size="12" lengthAdjust="spacing" textLength="56" x="474.75" y="296.3418">B&#24179;&#21488;&#35748;&#35777;</text><rect fill="#F1F1F1" height="33.9688" rx="12.5" ry="12.5" style="stroke:#181818;stroke-width:0.5;" width="104" x="450.75" y="344.1719"/><text fill="#000000" font-family="sans-serif" font-size="12" lengthAdjust="spacing" textLength="84" x="460.75" y="365.3105">&#33719;&#21462;&#31867;&#30446;&#26144;&#23556;&#34920;</text><rect fill="#F1F1F1" height="33.9688" rx="12.5" ry="12.5" style="stroke:#181818;stroke-width:0.5;" width="116" x="444.75" y="413.1406"/><text fill="#000000" font-family="sans-serif" font-size="12" lengthAdjust="spacing" textLength="96" x="454.75" y="434.2793">&#39044;&#36733;&#35268;&#26684;&#36716;&#25442;&#35268;&#21017;</text><rect fill="#555555" height="6" rx="2.5" ry="2.5" style="stroke:#555555;stroke-width:1.0;" width="471" x="103.75" y="533.5938"/><rect fill="#F1F1F1" height="33.9688" rx="12.5" ry="12.5" style="stroke:#181818;stroke-width:0.5;" width="116" x="281.25" y="615.3042"/><text fill="#000000" font-family="sans-serif" font-size="12" lengthAdjust="spacing" textLength="96" x="291.25" y="636.4429">&#35835;&#21462;&#21333;&#26465;&#25968;&#25454;&#35760;&#24405;</text><rect fill="#555555" height="6" rx="2.5" ry="2.5" style="stroke:#555555;stroke-width:1.0;" width="496" x="91.25" y="669.2729"/><rect fill="#F1F1F1" height="47.9375" rx="12.5" ry="12.5" style="stroke:#181818;stroke-width:0.5;" width="150" x="105.25" y="695.2729"/><text fill="#000000" font-family="sans-serif" font-size="12" lengthAdjust="spacing" textLength="48" x="115.25" y="716.4116">&#25968;&#25454;&#28165;&#27927;</text><text fill="#000000" font-family="sans-serif" font-size="12" lengthAdjust="spacing" textLength="130" x="115.25" y="730.3804">(&#25935;&#24863;&#35789;&#36807;&#28388;/HTML&#20928;&#21270;)</text><rect fill="#F1F1F1" height="47.9375" rx="12.5" ry="12.5" style="stroke:#181818;stroke-width:0.5;" width="130" x="285.25" y="695.2729"/><text fill="#000000" font-family="sans-serif" font-size="12" lengthAdjust="spacing" textLength="48" x="295.25" y="716.4116">&#25968;&#25454;&#36716;&#25442;</text><text fill="#000000" font-family="sans-serif" font-size="12" lengthAdjust="spacing" textLength="110" x="295.25" y="730.3804">(&#31867;&#30446;&#26144;&#23556;/&#21333;&#20301;&#36716;&#25442;)</text><rect fill="#F1F1F1" height="47.9375" rx="12.5" ry="12.5" style="stroke:#181818;stroke-width:0.5;" width="130" x="443.25" y="695.2729"/><text fill="#000000" font-family="sans-serif" font-size="12" lengthAdjust="spacing" textLength="48" x="453.25" y="716.4116">&#23186;&#20307;&#22788;&#29702;</text><text fill="#000000" font-family="sans-serif" font-size="12" lengthAdjust="spacing" textLength="110" x="453.25" y="730.3804">(&#22270;&#29255;&#21387;&#32553;/&#26684;&#24335;&#36716;&#25442;)</text><rect fill="#555555" height="6" rx="2.5" ry="2.5" style="stroke:#555555;stroke-width:1.0;" width="496" x="91.25" y="776.0151"/><rect fill="#F1F1F1" height="33.9688" rx="12.5" ry="12.5" style="stroke:#181818;stroke-width:0.5;" width="124" x="277.25" y="802.0151"/><text fill="#000000" font-family="sans-serif" font-size="12" lengthAdjust="spacing" textLength="104" x="287.25" y="823.1538">&#32452;&#35013;B&#24179;&#21488;&#25968;&#25454;&#27169;&#26495;</text><polygon fill="#F1F1F1" points="303.25,855.9839,375.25,855.9839,387.25,867.9839,375.25,879.9839,303.25,879.9839,291.25,867.9839,303.25,855.9839" style="stroke:#181818;stroke-width:0.5;"/><text fill="#000000" font-family="sans-serif" font-size="11" lengthAdjust="spacing" textLength="72" x="303.25" y="871.792">&#25968;&#25454;&#39564;&#35777;&#36890;&#36807;?</text><text fill="#000000" font-family="sans-serif" font-size="11" lengthAdjust="spacing" textLength="11" x="280.25" y="865.3896">&#26159;</text><text fill="#000000" font-family="sans-serif" font-size="11" lengthAdjust="spacing" textLength="11" x="387.25" y="865.3896">&#21542;</text><rect fill="#555555" height="6" rx="2.5" ry="2.5" style="stroke:#555555;stroke-width:1.0;" width="327" x="38" y="889.9839"/><polygon fill="#F1F1F1" points="161.75,915.9839,236.75,915.9839,248.75,927.9839,236.75,939.9839,161.75,939.9839,149.75,927.9839,161.75,915.9839" style="stroke:#181818;stroke-width:0.5;"/><text fill="#000000" font-family="sans-serif" font-size="11" lengthAdjust="spacing" textLength="75" x="161.75" y="931.792">B&#24179;&#21488;&#25903;&#25345;API?</text><text fill="#000000" font-family="sans-serif" font-size="11" lengthAdjust="spacing" textLength="11" x="138.75" y="925.3896">&#26159;</text><text fill="#000000" font-family="sans-serif" font-size="11" lengthAdjust="spacing" textLength="11" x="248.75" y="925.3896">&#21542;</text><rect fill="#F1F1F1" height="33.9688" rx="12.5" ry="12.5" style="stroke:#181818;stroke-width:0.5;" width="143" x="50" y="949.9839"/><text fill="#000000" font-family="sans-serif" font-size="12" lengthAdjust="spacing" textLength="123" x="60" y="971.1226">&#35843;&#29992;B&#24179;&#21488;&#21019;&#24314;&#21830;&#21697;API</text><rect fill="#F1F1F1" height="33.9688" rx="12.5" ry="12.5" style="stroke:#181818;stroke-width:0.5;" width="128" x="213" y="949.9839"/><text fill="#000000" font-family="sans-serif" font-size="12" lengthAdjust="spacing" textLength="108" x="223" y="971.1226">&#21551;&#21160;RPA&#33258;&#21160;&#21270;&#24037;&#20855;</text><rect fill="#F1F1F1" height="33.9688" rx="12.5" ry="12.5" style="stroke:#181818;stroke-width:0.5;" width="116" x="219" y="1018.9526"/><text fill="#000000" font-family="sans-serif" font-size="12" lengthAdjust="spacing" textLength="96" x="229" y="1040.0913">&#27169;&#25311;&#20154;&#24037;&#24405;&#20837;&#25805;&#20316;</text><polygon fill="#F1F1F1" points="199.25,1058.9214,211.25,1070.9214,199.25,1082.9214,187.25,1070.9214,199.25,1058.9214" style="stroke:#181818;stroke-width:0.5;"/><rect fill="#555555" height="6" rx="2.5" ry="2.5" style="stroke:#555555;stroke-width:1.0;" width="327" x="38" y="1102.9214"/><polygon fill="#F1F1F1" points="170.5,1128.9214,220.5,1128.9214,232.5,1140.9214,220.5,1152.9214,170.5,1152.9214,158.5,1140.9214,170.5,1128.9214" style="stroke:#181818;stroke-width:0.5;"/><text fill="#000000" font-family="sans-serif" font-size="11" lengthAdjust="spacing" textLength="50" x="170.5" y="1144.7295">&#25805;&#20316;&#25104;&#21151;?</text><text fill="#000000" font-family="sans-serif" font-size="11" lengthAdjust="spacing" textLength="11" x="147.5" y="1138.3271">&#26159;</text><text fill="#000000" font-family="sans-serif" font-size="11" lengthAdjust="spacing" textLength="11" x="232.5" y="1138.3271">&#21542;</text><rect fill="#F1F1F1" height="33.9688" rx="12.5" ry="12.5" style="stroke:#181818;stroke-width:0.5;" width="80" x="65" y="1162.9214"/><text fill="#000000" font-family="sans-serif" font-size="12" lengthAdjust="spacing" textLength="60" x="75" y="1184.0601">&#26631;&#35760;&#20026;&#25104;&#21151;</text><rect fill="#F1F1F1" height="33.9688" rx="12.5" ry="12.5" style="stroke:#181818;stroke-width:0.5;" width="92" x="59" y="1216.8901"/><text fill="#000000" font-family="sans-serif" font-size="12" lengthAdjust="spacing" textLength="72" x="69" y="1238.0288">&#20889;&#20837;&#25104;&#21151;&#26085;&#24535;</text><rect fill="#F1F1F1" height="33.9688" rx="12.5" ry="12.5" style="stroke:#181818;stroke-width:0.5;" width="92" x="240" y="1162.9214"/><text fill="#000000" font-family="sans-serif" font-size="12" lengthAdjust="spacing" textLength="72" x="250" y="1184.0601">&#22833;&#36133;&#27425;&#25968;&lt;3?</text><polygon fill="#F1F1F1" points="274,1216.8901,298,1216.8901,310,1228.8901,298,1240.8901,274,1240.8901,262,1228.8901,274,1216.8901" style="stroke:#181818;stroke-width:0.5;"/><text fill="#000000" font-family="sans-serif" font-size="11" lengthAdjust="spacing" textLength="11" x="280.5" y="1232.6982">&#26159;</text><text fill="#000000" font-family="sans-serif" font-size="11" lengthAdjust="spacing" textLength="11" x="251" y="1226.2959">&#26159;</text><text fill="#000000" font-family="sans-serif" font-size="11" lengthAdjust="spacing" textLength="11" x="310" y="1226.2959">&#21542;</text><rect fill="#F1F1F1" height="33.9688" rx="12.5" ry="12.5" style="stroke:#181818;stroke-width:0.5;" width="92" x="181" y="1250.8901"/><text fill="#000000" font-family="sans-serif" font-size="12" lengthAdjust="spacing" textLength="72" x="191" y="1272.0288">&#21152;&#20837;&#37325;&#35797;&#38431;&#21015;</text><rect fill="#F1F1F1" height="33.9688" rx="12.5" ry="12.5" style="stroke:#181818;stroke-width:0.5;" width="104" x="293" y="1250.8901"/><text fill="#000000" font-family="sans-serif" font-size="12" lengthAdjust="spacing" textLength="84" x="303" y="1272.0288">&#31227;&#20837;&#22833;&#36133;&#38548;&#31163;&#21306;</text><rect fill="#F1F1F1" height="33.9688" rx="12.5" ry="12.5" style="stroke:#181818;stroke-width:0.5;" width="92" x="299" y="1304.8589"/><text fill="#000000" font-family="sans-serif" font-size="12" lengthAdjust="spacing" textLength="72" x="309" y="1325.9976">&#35302;&#21457;&#37038;&#20214;&#21578;&#35686;</text><polygon fill="#F1F1F1" points="286,1344.8276,298,1356.8276,286,1368.8276,274,1356.8276,286,1344.8276" style="stroke:#181818;stroke-width:0.5;"/><polygon fill="#F1F1F1" points="195.5,1374.8276,207.5,1386.8276,195.5,1398.8276,183.5,1386.8276,195.5,1374.8276" style="stroke:#181818;stroke-width:0.5;"/><rect fill="#F1F1F1" height="33.9688" rx="12.5" ry="12.5" style="stroke:#181818;stroke-width:0.5;" width="92" x="437" y="889.9839"/><text fill="#000000" font-family="sans-serif" font-size="12" lengthAdjust="spacing" textLength="72" x="447" y="911.1226">&#35760;&#24405;&#26080;&#25928;&#25968;&#25454;</text><rect fill="#F1F1F1" height="33.9688" rx="12.5" ry="12.5" style="stroke:#181818;stroke-width:0.5;" width="92" x="437" y="958.9526"/><text fill="#000000" font-family="sans-serif" font-size="12" lengthAdjust="spacing" textLength="72" x="447" y="980.0913">&#29983;&#25104;&#38169;&#35823;&#25253;&#21578;</text><polygon fill="#F1F1F1" points="339.25,1404.8276,351.25,1416.8276,339.25,1428.8276,327.25,1416.8276,339.25,1404.8276" style="stroke:#181818;stroke-width:0.5;"/><polygon fill="#F1F1F1" points="297.75,559.5938,380.75,559.5938,392.75,571.5938,380.75,583.5938,297.75,583.5938,285.75,571.5938,297.75,559.5938" style="stroke:#181818;stroke-width:0.5;"/><text fill="#000000" font-family="sans-serif" font-size="11" lengthAdjust="spacing" textLength="11" x="343.25" y="593.8042">&#26159;</text><text fill="#000000" font-family="sans-serif" font-size="11" lengthAdjust="spacing" textLength="83" x="297.75" y="575.4019">&#23384;&#22312;&#24453;&#36801;&#31227;&#25968;&#25454;?</text><rect fill="#F1F1F1" height="33.9688" rx="12.5" ry="12.5" style="stroke:#181818;stroke-width:0.5;" width="116" x="281.25" y="1470.8276"/><text fill="#000000" font-family="sans-serif" font-size="12" lengthAdjust="spacing" textLength="96" x="291.25" y="1491.9663">&#29983;&#25104;&#36801;&#31227;&#32479;&#35745;&#25253;&#21578;</text><rect fill="#F1F1F1" height="33.9688" rx="12.5" ry="12.5" style="stroke:#181818;stroke-width:0.5;" width="92" x="293.25" y="1524.7964"/><text fill="#000000" font-family="sans-serif" font-size="12" lengthAdjust="spacing" textLength="72" x="303.25" y="1545.9351">&#21457;&#36865;&#23436;&#25104;&#36890;&#30693;</text><ellipse cx="339.25" cy="1589.7651" fill="none" rx="11" ry="11" style="stroke:#222222;stroke-width:1.0;"/><ellipse cx="339.25" cy="1589.7651" fill="#222222" rx="6" ry="6" style="stroke:#222222;stroke-width:1.0;"/><line style="stroke:#181818;stroke-width:1.0;" x1="339.25" x2="339.25" y1="67.2969" y2="87.2969"/><polygon fill="#181818" points="335.25,77.2969,339.25,87.2969,343.25,77.2969,339.25,81.2969" style="stroke:#181818;stroke-width:1.0;"/><line style="stroke:#181818;stroke-width:1.0;" x1="339.25" x2="339.25" y1="121.2656" y2="141.2656"/><polygon fill="#181818" points="335.25,131.2656,339.25,141.2656,343.25,131.2656,339.25,135.2656" style="stroke:#181818;stroke-width:1.0;"/><line style="stroke:#181818;stroke-width:1.0;" x1="187.25" x2="187.25" y1="345.6563" y2="380.6563"/><polygon fill="#181818" points="183.25,370.6563,187.25,380.6563,191.25,370.6563,187.25,374.6563" style="stroke:#181818;stroke-width:1.0;"/><line style="stroke:#181818;stroke-width:1.0;" x1="336.75" x2="336.75" y1="345.6563" y2="380.6563"/><polygon fill="#181818" points="332.75,370.6563,336.75,380.6563,340.75,370.6563,336.75,374.6563" style="stroke:#181818;stroke-width:1.0;"/><line style="stroke:#181818;stroke-width:1.0;" x1="336.75" x2="336.75" y1="414.625" y2="449.625"/><polygon fill="#181818" points="332.75,439.625,336.75,449.625,340.75,439.625,336.75,443.625" style="stroke:#181818;stroke-width:1.0;"/><line style="stroke:#181818;stroke-width:1.0;" x1="214" x2="187.25" y1="289.6875" y2="289.6875"/><line style="stroke:#181818;stroke-width:1.0;" x1="187.25" x2="187.25" y1="289.6875" y2="311.6875"/><polygon fill="#181818" points="183.25,301.6875,187.25,311.6875,191.25,301.6875,187.25,305.6875" style="stroke:#181818;stroke-width:1.0;"/><line style="stroke:#181818;stroke-width:1.0;" x1="310" x2="336.75" y1="289.6875" y2="289.6875"/><line style="stroke:#181818;stroke-width:1.0;" x1="336.75" x2="336.75" y1="289.6875" y2="311.6875"/><polygon fill="#181818" points="332.75,301.6875,336.75,311.6875,340.75,301.6875,336.75,305.6875" style="stroke:#181818;stroke-width:1.0;"/><line style="stroke:#181818;stroke-width:1.0;" x1="187.25" x2="187.25" y1="414.625" y2="501.5938"/><line style="stroke:#181818;stroke-width:1.0;" x1="187.25" x2="250" y1="501.5938" y2="501.5938"/><polygon fill="#181818" points="240,497.5938,250,501.5938,240,505.5938,244,501.5938" style="stroke:#181818;stroke-width:1.0;"/><line style="stroke:#181818;stroke-width:1.0;" x1="336.75" x2="336.75" y1="483.5938" y2="501.5938"/><line style="stroke:#181818;stroke-width:1.0;" x1="336.75" x2="274" y1="501.5938" y2="501.5938"/><polygon fill="#181818" points="284,497.5938,274,501.5938,284,505.5938,280,501.5938" style="stroke:#181818;stroke-width:1.0;"/><line style="stroke:#181818;stroke-width:1.0;" x1="262" x2="262" y1="255.2031" y2="277.6875"/><polygon fill="#181818" points="258,267.6875,262,277.6875,266,267.6875,262,271.6875" style="stroke:#181818;stroke-width:1.0;"/><line style="stroke:#181818;stroke-width:1.0;" x1="502.75" x2="502.75" y1="309.1719" y2="344.1719"/><polygon fill="#181818" points="498.75,334.1719,502.75,344.1719,506.75,334.1719,502.75,338.1719" style="stroke:#181818;stroke-width:1.0;"/><line style="stroke:#181818;stroke-width:1.0;" x1="502.75" x2="502.75" y1="378.1406" y2="413.1406"/><polygon fill="#181818" points="498.75,403.1406,502.75,413.1406,506.75,403.1406,502.75,407.1406" style="stroke:#181818;stroke-width:1.0;"/><line style="stroke:#181818;stroke-width:1.0;" x1="262" x2="262" y1="201.2344" y2="221.2344"/><polygon fill="#181818" points="258,211.2344,262,221.2344,266,211.2344,262,215.2344" style="stroke:#181818;stroke-width:1.0;"/><line style="stroke:#181818;stroke-width:1.0;" x1="502.75" x2="502.75" y1="201.2344" y2="275.2031"/><polygon fill="#181818" points="498.75,265.2031,502.75,275.2031,506.75,265.2031,502.75,269.2031" style="stroke:#181818;stroke-width:1.0;"/><line style="stroke:#181818;stroke-width:1.0;" x1="262" x2="262" y1="513.5938" y2="533.5938"/><polygon fill="#181818" points="258,523.5938,262,533.5938,266,523.5938,262,527.5938" style="stroke:#181818;stroke-width:1.0;"/><line style="stroke:#181818;stroke-width:1.0;" x1="502.75" x2="502.75" y1="447.1094" y2="533.5938"/><polygon fill="#181818" points="498.75,523.5938,502.75,533.5938,506.75,523.5938,502.75,527.5938" style="stroke:#181818;stroke-width:1.0;"/><line style="stroke:#181818;stroke-width:1.0;" x1="339.25" x2="339.25" y1="175.2344" y2="195.2344"/><polygon fill="#181818" points="335.25,185.2344,339.25,195.2344,343.25,185.2344,339.25,189.2344" style="stroke:#181818;stroke-width:1.0;"/><line style="stroke:#181818;stroke-width:1.0;" x1="180.25" x2="180.25" y1="675.2729" y2="695.2729"/><polygon fill="#181818" points="176.25,685.2729,180.25,695.2729,184.25,685.2729,180.25,689.2729" style="stroke:#181818;stroke-width:1.0;"/><line style="stroke:#181818;stroke-width:1.0;" x1="350.25" x2="350.25" y1="675.2729" y2="695.2729"/><polygon fill="#181818" points="346.25,685.2729,350.25,695.2729,354.25,685.2729,350.25,689.2729" style="stroke:#181818;stroke-width:1.0;"/><line style="stroke:#181818;stroke-width:1.0;" x1="508.25" x2="508.25" y1="675.2729" y2="695.2729"/><polygon fill="#181818" points="504.25,685.2729,508.25,695.2729,512.25,685.2729,508.25,689.2729" style="stroke:#181818;stroke-width:1.0;"/><line style="stroke:#181818;stroke-width:1.0;" x1="180.25" x2="180.25" y1="743.2104" y2="776.0151"/><polygon fill="#181818" points="176.25,766.0151,180.25,776.0151,184.25,766.0151,180.25,770.0151" style="stroke:#181818;stroke-width:1.0;"/><text fill="#000000" font-family="sans-serif" font-size="11" lengthAdjust="spacing" textLength="77" x="184.25" y="763.4209">&#20351;&#29992;&#27491;&#21017;&#34920;&#36798;&#24335;</text><line style="stroke:#181818;stroke-width:1.0;" x1="350.25" x2="350.25" y1="743.2104" y2="776.0151"/><polygon fill="#181818" points="346.25,766.0151,350.25,776.0151,354.25,766.0151,350.25,770.0151" style="stroke:#181818;stroke-width:1.0;"/><text fill="#000000" font-family="sans-serif" font-size="11" lengthAdjust="spacing" textLength="55" x="354.25" y="763.4209">&#21305;&#37197;&#35268;&#21017;&#24211;</text><line style="stroke:#181818;stroke-width:1.0;" x1="508.25" x2="508.25" y1="743.2104" y2="776.0151"/><polygon fill="#181818" points="504.25,766.0151,508.25,776.0151,512.25,766.0151,508.25,770.0151" style="stroke:#181818;stroke-width:1.0;"/><text fill="#000000" font-family="sans-serif" font-size="11" lengthAdjust="spacing" textLength="65" x="512.25" y="763.4209">Pillow&#24211;&#22788;&#29702;</text><line style="stroke:#181818;stroke-width:1.0;" x1="339.25" x2="339.25" y1="649.2729" y2="669.2729"/><polygon fill="#181818" points="335.25,659.2729,339.25,669.2729,343.25,659.2729,339.25,663.2729" style="stroke:#181818;stroke-width:1.0;"/><line style="stroke:#181818;stroke-width:1.0;" x1="339.25" x2="339.25" y1="782.0151" y2="802.0151"/><polygon fill="#181818" points="335.25,792.0151,339.25,802.0151,343.25,792.0151,339.25,796.0151" style="stroke:#181818;stroke-width:1.0;"/><line style="stroke:#181818;stroke-width:1.0;" x1="277" x2="277" y1="983.9526" y2="1018.9526"/><polygon fill="#181818" points="273,1008.9526,277,1018.9526,281,1008.9526,277,1012.9526" style="stroke:#181818;stroke-width:1.0;"/><line style="stroke:#181818;stroke-width:1.0;" x1="149.75" x2="121.5" y1="927.9839" y2="927.9839"/><line style="stroke:#181818;stroke-width:1.0;" x1="121.5" x2="121.5" y1="927.9839" y2="949.9839"/><polygon fill="#181818" points="117.5,939.9839,121.5,949.9839,125.5,939.9839,121.5,943.9839" style="stroke:#181818;stroke-width:1.0;"/><line style="stroke:#181818;stroke-width:1.0;" x1="248.75" x2="277" y1="927.9839" y2="927.9839"/><line style="stroke:#181818;stroke-width:1.0;" x1="277" x2="277" y1="927.9839" y2="949.9839"/><polygon fill="#181818" points="273,939.9839,277,949.9839,281,939.9839,277,943.9839" style="stroke:#181818;stroke-width:1.0;"/><line style="stroke:#181818;stroke-width:1.0;" x1="121.5" x2="121.5" y1="983.9526" y2="1070.9214"/><line style="stroke:#181818;stroke-width:1.0;" x1="121.5" x2="187.25" y1="1070.9214" y2="1070.9214"/><polygon fill="#181818" points="177.25,1066.9214,187.25,1070.9214,177.25,1074.9214,181.25,1070.9214" style="stroke:#181818;stroke-width:1.0;"/><line style="stroke:#181818;stroke-width:1.0;" x1="277" x2="277" y1="1052.9214" y2="1070.9214"/><line style="stroke:#181818;stroke-width:1.0;" x1="277" x2="211.25" y1="1070.9214" y2="1070.9214"/><polygon fill="#181818" points="221.25,1066.9214,211.25,1070.9214,221.25,1074.9214,217.25,1070.9214" style="stroke:#181818;stroke-width:1.0;"/><line style="stroke:#181818;stroke-width:1.0;" x1="199.25" x2="199.25" y1="895.9839" y2="915.9839"/><polygon fill="#181818" points="195.25,905.9839,199.25,915.9839,203.25,905.9839,199.25,909.9839" style="stroke:#181818;stroke-width:1.0;"/><line style="stroke:#181818;stroke-width:1.0;" x1="199.25" x2="199.25" y1="1082.9214" y2="1102.9214"/><polygon fill="#181818" points="195.25,1092.9214,199.25,1102.9214,203.25,1092.9214,199.25,1096.9214" style="stroke:#181818;stroke-width:1.0;"/><line style="stroke:#181818;stroke-width:1.0;" x1="105" x2="105" y1="1196.8901" y2="1216.8901"/><polygon fill="#181818" points="101,1206.8901,105,1216.8901,109,1206.8901,105,1210.8901" style="stroke:#181818;stroke-width:1.0;"/><line style="stroke:#181818;stroke-width:1.0;" x1="345" x2="345" y1="1284.8589" y2="1304.8589"/><polygon fill="#181818" points="341,1294.8589,345,1304.8589,349,1294.8589,345,1298.8589" style="stroke:#181818;stroke-width:1.0;"/><line style="stroke:#181818;stroke-width:1.0;" x1="262" x2="227" y1="1228.8901" y2="1228.8901"/><line style="stroke:#181818;stroke-width:1.0;" x1="227" x2="227" y1="1228.8901" y2="1250.8901"/><polygon fill="#181818" points="223,1240.8901,227,1250.8901,231,1240.8901,227,1244.8901" style="stroke:#181818;stroke-width:1.0;"/><line style="stroke:#181818;stroke-width:1.0;" x1="310" x2="345" y1="1228.8901" y2="1228.8901"/><line style="stroke:#181818;stroke-width:1.0;" x1="345" x2="345" y1="1228.8901" y2="1250.8901"/><polygon fill="#181818" points="341,1240.8901,345,1250.8901,349,1240.8901,345,1244.8901" style="stroke:#181818;stroke-width:1.0;"/><line style="stroke:#181818;stroke-width:1.0;" x1="227" x2="227" y1="1284.8589" y2="1356.8276"/><line style="stroke:#181818;stroke-width:1.0;" x1="227" x2="274" y1="1356.8276" y2="1356.8276"/><polygon fill="#181818" points="264,1352.8276,274,1356.8276,264,1360.8276,268,1356.8276" style="stroke:#181818;stroke-width:1.0;"/><line style="stroke:#181818;stroke-width:1.0;" x1="345" x2="345" y1="1338.8276" y2="1356.8276"/><line style="stroke:#181818;stroke-width:1.0;" x1="345" x2="298" y1="1356.8276" y2="1356.8276"/><polygon fill="#181818" points="308,1352.8276,298,1356.8276,308,1360.8276,304,1356.8276" style="stroke:#181818;stroke-width:1.0;"/><line style="stroke:#181818;stroke-width:1.0;" x1="286" x2="286" y1="1196.8901" y2="1216.8901"/><polygon fill="#181818" points="282,1206.8901,286,1216.8901,290,1206.8901,286,1210.8901" style="stroke:#181818;stroke-width:1.0;"/><line style="stroke:#181818;stroke-width:1.0;" x1="158.5" x2="105" y1="1140.9214" y2="1140.9214"/><line style="stroke:#181818;stroke-width:1.0;" x1="105" x2="105" y1="1140.9214" y2="1162.9214"/><polygon fill="#181818" points="101,1152.9214,105,1162.9214,109,1152.9214,105,1156.9214" style="stroke:#181818;stroke-width:1.0;"/><line style="stroke:#181818;stroke-width:1.0;" x1="232.5" x2="286" y1="1140.9214" y2="1140.9214"/><line style="stroke:#181818;stroke-width:1.0;" x1="286" x2="286" y1="1140.9214" y2="1162.9214"/><polygon fill="#181818" points="282,1152.9214,286,1162.9214,290,1152.9214,286,1156.9214" style="stroke:#181818;stroke-width:1.0;"/><line style="stroke:#181818;stroke-width:1.0;" x1="105" x2="105" y1="1250.8589" y2="1386.8276"/><line style="stroke:#181818;stroke-width:1.0;" x1="105" x2="183.5" y1="1386.8276" y2="1386.8276"/><polygon fill="#181818" points="173.5,1382.8276,183.5,1386.8276,173.5,1390.8276,177.5,1386.8276" style="stroke:#181818;stroke-width:1.0;"/><line style="stroke:#181818;stroke-width:1.0;" x1="286" x2="286" y1="1368.8276" y2="1386.8276"/><line style="stroke:#181818;stroke-width:1.0;" x1="286" x2="207.5" y1="1386.8276" y2="1386.8276"/><polygon fill="#181818" points="217.5,1382.8276,207.5,1386.8276,217.5,1390.8276,213.5,1386.8276" style="stroke:#181818;stroke-width:1.0;"/><line style="stroke:#181818;stroke-width:1.0;" x1="195.5" x2="195.5" y1="1108.9214" y2="1128.9214"/><polygon fill="#181818" points="191.5,1118.9214,195.5,1128.9214,199.5,1118.9214,195.5,1122.9214" style="stroke:#181818;stroke-width:1.0;"/><line style="stroke:#181818;stroke-width:1.0;" x1="483" x2="483" y1="923.9526" y2="958.9526"/><polygon fill="#181818" points="479,948.9526,483,958.9526,487,948.9526,483,952.9526" style="stroke:#181818;stroke-width:1.0;"/><line style="stroke:#181818;stroke-width:1.0;" x1="291.25" x2="195.5" y1="867.9839" y2="867.9839"/><line style="stroke:#181818;stroke-width:1.0;" x1="195.5" x2="195.5" y1="867.9839" y2="889.9839"/><polygon fill="#181818" points="191.5,879.9839,195.5,889.9839,199.5,879.9839,195.5,883.9839" style="stroke:#181818;stroke-width:1.0;"/><line style="stroke:#181818;stroke-width:1.0;" x1="387.25" x2="483" y1="867.9839" y2="867.9839"/><line style="stroke:#181818;stroke-width:1.0;" x1="483" x2="483" y1="867.9839" y2="889.9839"/><polygon fill="#181818" points="479,879.9839,483,889.9839,487,879.9839,483,883.9839" style="stroke:#181818;stroke-width:1.0;"/><line style="stroke:#181818;stroke-width:1.0;" x1="195.5" x2="195.5" y1="1398.8276" y2="1416.8276"/><line style="stroke:#181818;stroke-width:1.0;" x1="195.5" x2="327.25" y1="1416.8276" y2="1416.8276"/><polygon fill="#181818" points="317.25,1412.8276,327.25,1416.8276,317.25,1420.8276,321.25,1416.8276" style="stroke:#181818;stroke-width:1.0;"/><line style="stroke:#181818;stroke-width:1.0;" x1="483" x2="483" y1="992.9214" y2="1416.8276"/><line style="stroke:#181818;stroke-width:1.0;" x1="483" x2="351.25" y1="1416.8276" y2="1416.8276"/><polygon fill="#181818" points="361.25,1412.8276,351.25,1416.8276,361.25,1420.8276,357.25,1416.8276" style="stroke:#181818;stroke-width:1.0;"/><line style="stroke:#181818;stroke-width:1.0;" x1="339.25" x2="339.25" y1="835.9839" y2="855.9839"/><polygon fill="#181818" points="335.25,845.9839,339.25,855.9839,343.25,845.9839,339.25,849.9839" style="stroke:#181818;stroke-width:1.0;"/><line style="stroke:#181818;stroke-width:1.0;" x1="339.25" x2="339.25" y1="583.5938" y2="615.3042"/><polygon fill="#181818" points="335.25,605.3042,339.25,615.3042,343.25,605.3042,339.25,609.3042" style="stroke:#181818;stroke-width:1.0;"/><line style="stroke:#181818;stroke-width:1.0;" x1="339.25" x2="339.25" y1="1428.8276" y2="1438.8276"/><line style="stroke:#181818;stroke-width:1.0;" x1="339.25" x2="599.25" y1="1438.8276" y2="1438.8276"/><polygon fill="#181818" points="595.25,1013.6636,599.25,1003.6636,603.25,1013.6636,599.25,1009.6636" style="stroke:#181818;stroke-width:1.0;"/><line style="stroke:#181818;stroke-width:1.0;" x1="599.25" x2="599.25" y1="571.5938" y2="1438.8276"/><line style="stroke:#181818;stroke-width:1.0;" x1="599.25" x2="392.75" y1="571.5938" y2="571.5938"/><polygon fill="#181818" points="402.75,567.5938,392.75,571.5938,402.75,575.5938,398.75,571.5938" style="stroke:#181818;stroke-width:1.0;"/><line style="stroke:#181818;stroke-width:1.0;" x1="285.75" x2="24" y1="571.5938" y2="571.5938"/><polygon fill="#181818" points="20,999.6636,24,1009.6636,28,999.6636,24,1003.6636" style="stroke:#181818;stroke-width:1.0;"/><line style="stroke:#181818;stroke-width:1.0;" x1="24" x2="24" y1="571.5938" y2="1450.8276"/><line style="stroke:#181818;stroke-width:1.0;" x1="24" x2="339.25" y1="1450.8276" y2="1450.8276"/><line style="stroke:#181818;stroke-width:1.0;" x1="339.25" x2="339.25" y1="1450.8276" y2="1470.8276"/><polygon fill="#181818" points="335.25,1460.8276,339.25,1470.8276,343.25,1460.8276,339.25,1464.8276" style="stroke:#181818;stroke-width:1.0;"/><line style="stroke:#181818;stroke-width:1.0;" x1="339.25" x2="339.25" y1="539.5938" y2="559.5938"/><polygon fill="#181818" points="335.25,549.5938,339.25,559.5938,343.25,549.5938,339.25,553.5938" style="stroke:#181818;stroke-width:1.0;"/><line style="stroke:#181818;stroke-width:1.0;" x1="339.25" x2="339.25" y1="1504.7964" y2="1524.7964"/><polygon fill="#181818" points="335.25,1514.7964,339.25,1524.7964,343.25,1514.7964,339.25,1518.7964" style="stroke:#181818;stroke-width:1.0;"/><line style="stroke:#181818;stroke-width:1.0;" x1="339.25" x2="339.25" y1="1558.7651" y2="1578.7651"/><polygon fill="#181818" points="335.25,1568.7651,339.25,1578.7651,343.25,1568.7651,339.25,1572.7651" style="stroke:#181818;stroke-width:1.0;"/><!--SRC=[ZPLDJnfH58Rtyojc2Ok6HNTCKwEhchG9QRhingHOIGqsIk8MMZv6FWG515GAA5-rEeDHYp8C_9avT-wi_0izCtV0KR0j2m9ppttVSvzppfrG8BJkvsc_2tTNaEsHOeza93gEw1r56vOXVK1k8detnN5RePND4ES5iGgT53xNhnHTgGdu95cdgch4ChegtG_5HTyoo75Zl-NHb5Cz5wVI21Syj1C5iKBATUX5xuSx0iUjRcn-uNZyU1UPDvMQL8u8rhF0AkzYkP1gYmnovE0EXja5DnzQymTv5vguhJXhF-rzrmjTMmM6OL8OOO3W2DZjG_P0L_BaHzGyaYNCrlthMtxUfOldjFBB8Gav6P9TKgf3yvhSP6b7X4hNeKYw3PAgeIiH-oIVqTHZaioZXrEQ2Q5AEBBiewf4CYUsP_1JODKwFx_oUIKGP1IMPYbC4hzKz2E9iQCDEmslSH95xiYLr8TKFKTrnbZWK9-tw7BRQm6ihWikod3SXL6C5PObYJ03MqYvBBjjCrb1CyWKIRLXzu7K0xM8jJBNf_LY05XnRcFaklGnYBNAacYDoXawJX2bwNdpuTrRI8GHjli1nelNcZescLsSOfvu4ZeQOLM5gRm3XyE47GvDd1mycAUcPjZQ8mz8ts4pCXOmo3-l3cVxcfg7PXIx5DNXQAJl960tfGz_Uf0fPZP7tHTONz_OHbssRrfG6xWbh2jHUXfRSawKsI_LyTFUDixIM6iZV8ZKfhqzBSWCzCdcYN919ka8TlhyhK_6mzu4uX4e0oZ68HzvD2GFmm2vzXmLDX7lVOiqSOO_iBBGRq6iByo6ik7G1WCpGYr2hCL6v8cPDGMEVmw4KqnijCGS96lFdz9BwWbiLUrsm28V-tWXNZ5Ji9P8gGNZqaF0CoVsGlEINhV8kJa8hruk23CrC9FuAtMy5j7LI6IeN3JADH1B_yyQPnJtiXoCmuBULY0zc0EQTjgGtJE-IPho6_QIzABz3yJslpdUNZRhUEEHeZXpY-c56l8p2XKgooJPGY_dJORVraN3SNOWksRmzK2bnYJSQsOQZe2KDfN2Xtgj9U1BPUChzmS0]--></g></svg>