<?xml version="1.0" encoding="us-ascii" standalone="no"?><svg xmlns="http://www.w3.org/2000/svg" xmlns:xlink="http://www.w3.org/1999/xlink" contentStyleType="text/css" height="378px" preserveAspectRatio="none" style="width:186px;height:378px;background:#FFFFFF;" version="1.1" viewBox="0 0 186 378" width="186px" zoomAndPan="magnify"><defs/><g><!--entity Prometheus--><g id="elem_Prometheus"><rect fill="#F1F1F1" height="46.2969" rx="2.5" ry="2.5" style="stroke:#181818;stroke-width:0.5;" width="125" x="31" y="7"/><rect fill="#F1F1F1" height="10" style="stroke:#181818;stroke-width:0.5;" width="15" x="136" y="12"/><rect fill="#F1F1F1" height="2" style="stroke:#181818;stroke-width:0.5;" width="4" x="134" y="14"/><rect fill="#F1F1F1" height="2" style="stroke:#181818;stroke-width:0.5;" width="4" x="134" y="18"/><text fill="#000000" font-family="sans-serif" font-size="14" lengthAdjust="spacing" textLength="85" x="46" y="39.9951">Prometheus</text></g><!--entity Grafana Dashboard--><g id="elem_Grafana Dashboard"><rect fill="#F1F1F1" height="46.2969" rx="2.5" ry="2.5" style="stroke:#181818;stroke-width:0.5;" width="173" x="7" y="113.3"/><rect fill="#F1F1F1" height="10" style="stroke:#181818;stroke-width:0.5;" width="15" x="160" y="118.3"/><rect fill="#F1F1F1" height="2" style="stroke:#181818;stroke-width:0.5;" width="4" x="158" y="120.3"/><rect fill="#F1F1F1" height="2" style="stroke:#181818;stroke-width:0.5;" width="4" x="158" y="124.3"/><text fill="#000000" font-family="sans-serif" font-size="14" lengthAdjust="spacing" textLength="133" x="22" y="146.2951">Grafana Dashboard</text></g><!--entity AlertManager--><g id="elem_AlertManager"><rect fill="#F1F1F1" height="46.2969" rx="2.5" ry="2.5" style="stroke:#181818;stroke-width:0.5;" width="131" x="28" y="219.6"/><rect fill="#F1F1F1" height="10" style="stroke:#181818;stroke-width:0.5;" width="15" x="139" y="224.6"/><rect fill="#F1F1F1" height="2" style="stroke:#181818;stroke-width:0.5;" width="4" x="137" y="226.6"/><rect fill="#F1F1F1" height="2" style="stroke:#181818;stroke-width:0.5;" width="4" x="137" y="230.6"/><text fill="#000000" font-family="sans-serif" font-size="14" lengthAdjust="spacing" textLength="91" x="43" y="252.5951">AlertManager</text></g><!--entity Slack/Email--><g id="elem_Slack/Email"><rect fill="#F1F1F1" height="46.2969" rx="2.5" ry="2.5" style="stroke:#181818;stroke-width:0.5;" width="117" x="35" y="325.89"/><rect fill="#F1F1F1" height="10" style="stroke:#181818;stroke-width:0.5;" width="15" x="132" y="330.89"/><rect fill="#F1F1F1" height="2" style="stroke:#181818;stroke-width:0.5;" width="4" x="130" y="332.89"/><rect fill="#F1F1F1" height="2" style="stroke:#181818;stroke-width:0.5;" width="4" x="130" y="336.89"/><text fill="#000000" font-family="sans-serif" font-size="14" lengthAdjust="spacing" textLength="77" x="50" y="358.8851">Slack/Email</text></g><!--link Prometheus to Grafana Dashboard--><g id="link_Prometheus_Grafana Dashboard"><path d="M93.5,53.78 C93.5,71.28 93.5,89.38 93.5,106.86 " fill="none" id="Prometheus-to-Grafana Dashboard" style="stroke:#181818;stroke-width:1.0;"/><polygon fill="#181818" points="93.5,112.86,97.5,103.86,93.5,107.86,89.5,103.86,93.5,112.86" style="stroke:#181818;stroke-width:1.0;"/></g><!--link Grafana Dashboard to AlertManager--><g id="link_Grafana Dashboard_AlertManager"><path d="M93.5,160.08 C93.5,177.57 93.5,195.68 93.5,213.16 " fill="none" id="Grafana Dashboard-to-AlertManager" style="stroke:#181818;stroke-width:1.0;"/><polygon fill="#181818" points="93.5,219.16,97.5,210.16,93.5,214.16,89.5,210.16,93.5,219.16" style="stroke:#181818;stroke-width:1.0;"/></g><!--link AlertManager to Slack/Email--><g id="link_AlertManager_Slack/Email"><path d="M93.5,266.38 C93.5,283.87 93.5,301.97 93.5,319.45 " fill="none" id="AlertManager-to-Slack/Email" style="stroke:#181818;stroke-width:1.0;"/><polygon fill="#181818" points="93.5,325.45,97.5,316.45,93.5,320.45,89.5,316.45,93.5,325.45" style="stroke:#181818;stroke-width:1.0;"/></g><!--SRC=[YmueoizDBSb8BIsELT3LjLE8TYzAJ4lCIrHmIIpEICfFB4g9vS8Y1b7hc9DQLE8Bb4bFBG8gG-52L0Jd92Pdwxlc9cRcn080]--></g></svg>